# xmcd
#
# Track frame offsets: 
#        150
#        17712
#        40065
#        52237
#        69860
#        89240
#        105437
#        119912
#        137740
#        149860
#        168397
#        182667
#
# Disc length: 2769 seconds
#
# Revision: 1
# Processed by: cddbd v1.4PL0 Copyright (c) Steve Scherf et al.
# Submitted via: ExactAudioCopy v0.90b3
#
DISCID=b70acf0c
DTITLE=Alabama - Down Home (36 All-Time Favorites) - Disc 3
DYEAR=1900
DGENRE=Country
TTITLE0=Mountain Music
TTITLE1=Tar Top
TTITLE2=See The Embers, Feel The Flame
TTITLE3=What In The Name Of Love
TTITLE4=Red River
TTITLE5=Close Enough To Perfect
TTITLE6=Song Of The South
TTITLE7=Dixieland Delight
TTITLE8=Is This How Love Begins
TTITLE9=Keep On Dreamin'
TTITLE10=Some Other Time, Some Other Place
TTITLE11=Vacation
EXTD=My Name Is Derek! This Cd is 3 disc compilation!
EXTT0=
EXTT1=
EXTT2=
EXTT3=
EXTT4=
EXTT5=
EXTT6=
EXTT7=
EXTT8=
EXTT9=
EXTT10=
EXTT11=
PLAYORDER=
